# xmcd
# 
# Track frame offsets:
#     150
#     16390
#     30326
#     49342
#     62361
#     76174
#     92157
#     108141
#     121279
#     137735
#     153375
# 
# Disc length: 2270
# 
# Revision: 1
# Processed by: cddbd v1.5.2PL0 Copyright (c) Steve Scherf et al.
# Submitted via: fre:ac v1.0.17
# 
DISCID=7d08dc0b
DTITLE=Rosario - Contigo Me Voy
DYEAR=2005
DGENRE=Espanol
TTITLE0=El Beso (Contigo me voy)
TTITLE1=Mientras me quede corazon
TTITLE2=El niño de tus ojos
TTITLE3=Que me dejen vivir
TTITLE4=En el mismo lugar
TTITLE5=Cayetano
TTITLE6=Si me llevas
TTITLE7=Parece que fue ayer
TTITLE8=Rumba del bongo
TTITLE9=A flor de piel
TTITLE10=Mi amor por ti
EXTD=
EXTT0=
EXTT1=
EXTT2=
EXTT3=
EXTT4=
EXTT5=
EXTT6=
EXTT7=
EXTT8=
EXTT9=
EXTT10=
PLAYORDER=
